<svg xmlns:xlink="http://www.w3.org/1999/xlink" xmlns="http://www.w3.org/2000/svg" viewBox="0 0 988.85 988.8">
    <style>
        path {
            fill: #0d3451;
        }
        @media (prefers-color-scheme: dark) {
            path {
                fill: #ffffff;
            }
        }
    </style>
    <path
        d="M1004.93,477.18c-.42-5.67-.61-12-1.49-18.94s-2-14.47-3.24-22.63c-.31-2-.63-4-1-6.07H654.35c-1.49-2.57-3.07-5.13-4.82-7.69a167.81,167.81,0,0,0-46.19-46.75,170.92,170.92,0,0,0-72.84-26.6c-3.41-.63-7-.35-10.45-.65l-5.28-.32-2.65-.18c-.89,0-1.78.11-2.67.15-1.23.11-2.48.17-3.72.23-5.91.3-11.88.3-17.8,1.63-14.54,1.57-28.78,6.48-42.74,12.21-3.39,1.7-6.81,3.34-10.29,4.94s-6.51,4-9.87,5.87l-5,2.93-4.61,3.51c-3,2.41-6.34,4.49-9.29,7A184.88,184.88,0,0,0,374.72,421a183.2,183.2,0,0,0-20.41,43.3c-4.6,15.47-6.55,31.58-7.12,47.73.57,16.15,2.52,32.27,7.12,47.74A183.2,183.2,0,0,0,374.72,603a184.88,184.88,0,0,0,31.42,35.11c2.95,2.55,6.26,4.63,9.29,7L420,648.7l5,2.93c3.36,1.88,6.44,4.22,9.87,5.88s6.9,3.23,10.29,4.93c14,5.72,28.2,10.64,42.74,12.21,5.92,1.32,11.89,1.32,17.8,1.63v.66H695.61a246.59,246.59,0,0,1-46.39,40.43,253,253,0,0,1-109.25,40c-5.15.81-10.42.68-15.68,1.07l-7.93.4-4,.21c-1.33,0-2.67-.13-4-.17-.88-.06-1.77-.09-2.64-.14-9.82-.51-19.78-.63-29.66-2.59-21.75-2.61-43.24-9.57-64.12-18.38l-15.42-7.44c-5.13-2.53-9.87-5.83-14.86-8.73l-7.41-4.51c-2.37-1.66-4.65-3.45-7-5.17-4.61-3.54-9.45-6.83-13.88-10.63a266,266,0,0,1-47.15-52.68,264.11,264.11,0,0,1-30.62-65C268.69,560.43,265.55,536.24,265,512c.56-24.24,3.7-48.42,10.63-71.61a264.52,264.52,0,0,1,30.62-65,266.59,266.59,0,0,1,47.15-52.68c4.43-3.8,9.27-7.08,13.88-10.62,2.34-1.73,4.62-3.52,7-5.18l7.41-4.5c5-2.9,9.73-6.2,14.86-8.74L412,286.27c20.88-8.79,42.37-15.76,64.12-18.38,9.88-2,19.84-2.07,29.66-2.59l2.64-.13c1.33-.05,2.67-.17,4-.17l4,.21,7.93.4c5.26.39,10.53.25,15.68,1.07a253,253,0,0,1,109.25,39.95,247.66,247.66,0,0,1,46.39,40.44H977.88A483.66,483.66,0,0,0,940,264.59c-4.47-7.71-9.24-15.46-14.4-23.23A493.47,493.47,0,0,0,568.38,20.92c-10.31-1.42-20.84-1.73-31.38-2.38l-15.89-.69-8-.25c-2.66,0-5.33.12-8,.19-21.39.81-43.08,1.55-64.7,5.27C397,28.83,353.74,42,312,60q-15.5,7.15-30.87,14.91c-10.2,5.22-20,11.38-29.86,17.33l-14.72,9.21c-4.78,3.28-9.45,6.73-14.15,10.16-9.33,7-18.8,13.83-27.73,21.38a513.32,513.32,0,0,0-94.48,105.49A511.13,511.13,0,0,0,38.87,368.55C24.9,414.94,18.15,463.42,17.58,512c.57,48.59,7.32,97.07,21.29,143.45a511.19,511.19,0,0,0,61.35,130.13A513.27,513.27,0,0,0,194.7,891.06c8.93,7.56,18.4,14.43,27.73,21.38,4.7,3.45,9.37,6.88,14.15,10.15,4.91,3.09,9.82,6.15,14.72,9.22,9.9,6,19.66,12.11,29.86,17.34s20.54,10.14,30.87,14.9c41.71,18,85,31.11,128.4,36.89,21.62,3.72,43.31,4.47,64.7,5.29,2.67.06,5.34.18,8,.17l8-.24,15.89-.69c10.54-.66,21.07-1,31.38-2.38A493.44,493.44,0,0,0,925.63,782.64c5.16-7.76,9.93-15.51,14.4-23.22a482.89,482.89,0,0,0,37.85-82.48c4-11.52,7.5-22.65,10.47-33.21,2.74-10.25,5.16-20,7.31-29.2,1.5-7,2.58-13.68,3.58-20.06q.5-3.09,1-6.08c1.28-8.14,2.34-15.7,3.24-22.62s1.07-13.28,1.49-18.94c1.35-22.71,1.49-34.83,1.49-34.83S1006.28,499.89,1004.93,477.18ZM922.67,541c-.35,4.72-.45,10-1.21,15.79s-1.74,12.05-2.73,18.85c-1,5.87-1.9,12.23-3.19,18.81-.21,1-.35,2-.56,3q-2.75,11.47-6.12,24.31a436.28,436.28,0,0,1-19.45,55.18,385.66,385.66,0,0,1-32.8,60.59c-4.78,7.28-9.93,14.6-15.43,21.89A410.26,410.26,0,0,1,558.91,921.16c-8.59,1.22-17.37,1.37-26.16,2l-13.23.6-6.64.22c-2.23,0-4.45-.11-6.67-.17-17.82-.77-35.89-1.23-53.9-4.42-36.21-4.71-72.2-15.8-107-30.73q-12.88-6-25.71-12.41c-8.51-4.33-16.59-9.54-24.87-14.47l-12.28-7.64c-4-2.75-7.85-5.64-11.76-8.5C263,839.76,255,834.1,247.6,827.8a431.65,431.65,0,0,1-78.71-87.89,428.87,428.87,0,0,1-51.1-108.4c-11.63-38.66-17.18-79-17.75-119.51.57-40.47,6.12-80.85,17.75-119.5a428.94,428.94,0,0,1,51.1-108.41,431.07,431.07,0,0,1,78.71-87.88c7.43-6.3,15.35-12,23.11-17.8,3.91-2.85,7.79-5.75,11.76-8.49l12.28-7.64c8.28-4.94,16.36-10.15,24.87-14.48s17.12-8.41,25.71-12.41c34.78-14.94,70.77-26,107-30.72,18-3.19,36.08-3.66,53.9-4.42,2.22-.07,4.44-.19,6.67-.18l6.64.23,13.23.59c8.79.57,17.57.74,26.16,2A410.31,410.31,0,0,1,841.18,264.59H729.3a325.46,325.46,0,0,0-34.17-26.46,335.42,335.42,0,0,0-145.69-53.38c-6.88-1-13.9-1-20.92-1.5l-10.58-.5-5.31-.21c-1.78,0-3.56.11-5.34.17-14.24.71-28.72.91-43.09,3.57-29,3.66-57.74,12.69-85.56,24.56l-20.56,9.92c-6.83,3.43-13.24,7.68-19.86,11.6l-9.86,6.07c-3.16,2.21-6.25,4.55-9.38,6.84-6.17,4.68-12.55,9.16-18.49,14.21a348.67,348.67,0,0,0-62.93,70.29,346.66,346.66,0,0,0-40.86,86.67c-9.28,30.92-13.62,63.21-14.19,95.56.57,32.35,4.91,64.64,14.19,95.57a347.06,347.06,0,0,0,40.86,86.68,348.88,348.88,0,0,0,62.93,70.28c5.94,5,12.32,9.51,18.49,14.2,3.13,2.3,6.22,4.63,9.38,6.84l9.86,6.07c6.62,3.92,13,8.17,19.86,11.61s13.73,6.63,20.56,9.91c27.82,11.88,56.57,20.91,85.56,24.57,14.37,2.66,28.85,2.85,43.09,3.56,1.78.06,3.56.18,5.34.17l5.31-.21,10.58-.5c7-.47,14-.48,20.92-1.5a335.41,335.41,0,0,0,145.69-53.37,328.16,328.16,0,0,0,34.17-26.46,337.38,337.38,0,0,0,58.28-67c3.45-5.17,6.59-10.33,9.57-15.47a331.65,331.65,0,0,0,32.23-77.14c.45-1.82.9-3.56,1.35-5.33h-325v-.59a21.79,21.79,0,0,1-5.94-.7c-7.31-.52-14.32-3.39-21.36-6a39.1,39.1,0,0,0-5.15-2.43c-1.76-.76-3.18-2.14-4.89-3-.83-.49-1.68-.94-2.57-1.36l-2.22-1.86c-1.47-1.27-3.24-2.15-4.69-3.44A104.85,104.85,0,0,1,443.2,557.5,103.49,103.49,0,0,1,433,535.86c-2.26-7.75-3-15.8-3.6-23.86.58-8.06,1.34-16.09,3.6-23.85a103.49,103.49,0,0,1,10.2-21.64A104.85,104.85,0,0,1,458.91,449c1.45-1.29,3.22-2.17,4.69-3.44l2.22-1.86c.89-.42,1.74-.87,2.57-1.36,1.71-.86,3.13-2.24,4.89-3a39.16,39.16,0,0,0,5.15-2.44c7-2.65,14.05-5.51,21.36-6a21.05,21.05,0,0,1,5.94-.71,33.36,33.36,0,0,0,4.8-.3c.45,0,.89-.15,1.33-.15l1.33.18c.88.1,1.76.18,2.63.23,1.74.21,3.53-.21,5.24.22a89.24,89.24,0,0,1,36.39,13.26c20.2,13.83,30.13,33,33.41,46.54,3.53,13.7,2.75,21.94,3.22,21.89H924S923.75,522.1,922.67,541Z"
        transform="translate(-17.58 -17.6)" />
</svg>