<?xml version="1.0" standalone="no"?><!DOCTYPE svg PUBLIC "-//W3C//DTD SVG 1.1//EN" "http://www.w3.org/Graphics/SVG/1.1/DTD/svg11.dtd"><svg t="1724745048402" class="icon" viewBox="0 0 1024 1024" version="1.1" xmlns="http://www.w3.org/2000/svg" p-id="22162" xmlns:xlink="http://www.w3.org/1999/xlink" width="200" height="200"><path d="M512 104.239407A407.760593 407.760593 0 0 0 104.239407 512v350.350222c0 31.81037 25.6 57.419852 57.419852 57.419852h350.321778a407.760593 407.760593 0 0 0 0.028444 0A407.760593 407.760593 0 0 0 919.770074 512 407.760593 407.760593 0 0 0 512 104.248889z m0 107.605334A300.155259 300.155259 0 0 1 812.155259 512 300.155259 300.155259 0 0 1 512 812.155259 300.155259 300.155259 0 0 1 211.844741 512 300.155259 300.155259 0 0 1 512 211.844741z" fill="#4CAF50" p-id="22163"></path></svg>